<svg version="1.2" xmlns="http://www.w3.org/2000/svg" viewBox="0 0 1280 400" width="1280" height="400">
	<style>
		.s0 { fill: #000000 } 
		.s1 { fill: none;stroke: #348059;stroke-miterlimit:10;stroke-width: 7 } 
		.s2 { fill: #348059 } 
	</style>
	<g id="Layer 1">
		<g id="PRIMARY copy">
			<path id="COM
" fill-rule="evenodd" class="s0" d="m352.04 234.58q0-6.02 2.22-11.76 2.31-5.84 6.67-10.56 4.35-4.72 10.55-7.5 6.3-2.87 14.17-2.87 9.44 0 16.48 3.98 7.03 3.89 10.46 10.37l-13.8 9.82q-1.2-3.24-3.51-5-2.23-1.76-4.91-2.41-2.59-0.74-5.09-0.74-3.89 0-6.76 1.57-2.78 1.48-4.63 3.98-1.76 2.5-2.69 5.56-0.83 3.06-0.83 6.11 0 3.43 1.02 6.57 1.02 3.15 2.96 5.65 1.95 2.41 4.72 3.8 2.87 1.39 6.39 1.39 2.5 0 5.09-0.74 2.6-0.84 4.73-2.6 2.13-1.75 3.24-4.72l14.72 8.8q-1.95 4.81-6.48 8.24-4.54 3.42-10.28 5.28-5.74 1.76-11.39 1.76-7.31 0-13.42-2.87-6.02-2.97-10.47-7.78-4.35-4.91-6.76-10.93-2.4-6.11-2.4-12.4zm100.24 33.98q-7.5 0-13.61-2.78-6.11-2.87-10.56-7.59-4.35-4.82-6.76-10.74-2.31-6.02-2.31-12.41 0-6.58 2.5-12.5 2.5-5.93 6.94-10.56 4.54-4.72 10.65-7.4 6.2-2.69 13.52-2.69 7.5 0 13.61 2.87 6.11 2.78 10.46 7.59 4.35 4.82 6.67 10.84 2.4 5.92 2.4 12.22 0 6.48-2.5 12.41-2.4 5.92-6.94 10.64-4.44 4.63-10.56 7.41-6.11 2.69-13.51 2.69zm-14.91-33.34q0 3.34 0.93 6.48 0.92 3.06 2.77 5.56 1.86 2.41 4.63 3.89 2.87 1.39 6.76 1.39 3.89 0 6.76-1.48 2.87-1.49 4.63-3.99 1.85-2.59 2.69-5.64 0.92-3.15 0.92-6.39 0-3.34-0.92-6.39-0.93-3.06-2.78-5.46-1.85-2.5-4.72-3.89-2.87-1.39-6.67-1.39-3.89 0-6.76 1.48-2.78 1.48-4.63 3.98-1.85 2.41-2.78 5.56-0.83 3.05-0.83 6.29zm129.05 32.78h-18.05v-34.63l-11.02 24.35h-9.63l-11.02-24.35v34.63h-18.05v-65.74h19.72l14.17 30.93 14.25-30.93h19.63z"/>
			<path id="ARREDO
" fill-rule="evenodd" class="s0" d="m639.69 266l25.66-65.74h9.87l25.58 65.74h-10.93l-6.96-17.88h-25.41l-6.87 17.88zm19.7-25.56h21.46l-10.56-28.81zm64.44 25.56h-10.43v-65.74h28.59q4.45 0 8.09 1.85 3.78 1.82 6.48 4.91 2.79 3.05 4.26 6.94 1.55 3.75 1.55 7.7 0 4.37-1.64 8.41-1.52 3.87-4.44 6.76-2.87 2.87-6.77 4.2l15.48 24.97h-11.68l-14.26-22.87h-15.23zm0-56.54v24.46h18.07q2.93 0 5.13-1.63 2.23-1.71 3.42-4.44 1.36-2.88 1.36-6.19 0-3.41-1.54-6.12-1.41-2.81-3.8-4.36-2.32-1.72-5.11-1.72zm66 56.54h-10.43v-65.74h28.59q4.45 0 8.1 1.85 3.77 1.82 6.48 4.91 2.78 3.05 4.26 6.94 1.55 3.75 1.55 7.7 0 4.37-1.65 8.41-1.52 3.87-4.44 6.76-2.86 2.87-6.77 4.2l15.49 24.97h-11.68l-14.27-22.87h-15.23zm0-56.54v24.46h18.07q2.93 0 5.13-1.63 2.23-1.71 3.43-4.44 1.35-2.88 1.35-6.2 0-3.4-1.54-6.12-1.41-2.81-3.79-4.35-2.33-1.72-5.11-1.72zm66 47.33h34.68v9.21h-45.11v-65.74h44.27v9.2h-33.84v18.7h29.33v8.6h-29.33zm72.88 9.21h-23.31v-65.74h23.31q10.64 0 17.72 4.44 7.21 4.35 10.74 11.85 3.6 7.41 3.6 16.48 0 10-3.97 17.41-3.9 7.41-11.11 11.48-7.19 4.08-16.98 4.08zm21.5-32.97q0-6.9-2.57-12.22-2.47-5.35-7.32-8.33-4.72-3.02-11.61-3.02h-12.88v47.33h12.88q6.98 0 11.7-3.11 4.83-3.15 7.23-8.52 2.57-5.4 2.57-12.13zm53.49 33.45q-7.06 0-12.84-2.71-5.72-2.87-9.91-7.59-4.17-4.81-6.48-10.74-2.19-6.02-2.19-12.33 0-6.58 2.38-12.48 2.4-6.02 6.66-10.65 4.29-4.72 10-7.41 5.8-2.76 12.61-2.76 7.06 0 12.76 2.95 5.8 2.78 9.91 7.59 4.16 4.81 6.39 10.83 2.27 5.86 2.27 12.08 0 6.55-2.37 12.55-2.32 5.93-6.66 10.65-4.2 4.63-10 7.41-5.7 2.61-12.53 2.61zm-20.86-33.33q0 4.64 1.44 9.05 1.5 4.26 4.17 7.69 2.78 3.29 6.58 5.27 3.95 1.98 8.79 1.98 4.97 0 8.8-1.98 3.95-2.14 6.57-5.55 2.73-3.5 4.08-7.78 1.43-4.32 1.43-8.72 0-4.64-1.53-8.87-1.41-4.35-4.26-7.69-2.67-3.46-6.57-5.37-3.8-1.96-8.54-1.96-4.98 0-8.87 2.06-3.87 2-6.57 5.46-2.67 3.4-4.17 7.68-1.35 4.25-1.35 8.73z"/>
			<path id="s.r.l.
" fill-rule="evenodd" class="s0" d="m1068.45 259.57q-3.77 0-7.16-1.2-3.39-1.29-5.8-3.75l2.33-4.24q2.63 2.28 5.19 3.34 2.62 1.01 5.19 1.01 2.69 0 4.33-0.95 1.67-1.03 1.67-2.99 0-1.42-0.92-2.12-0.83-0.71-2.47-1.2-1.62-0.51-3.9-1.14-3.2-0.99-5.39-2.02-2.17-1.06-3.27-2.58-1.11-1.59-1.11-4 0-2.92 1.45-4.95 1.56-2.1 4.19-3.21 2.71-1.11 6.2-1.11 3.26 0 6.02 1.05 2.8 0.98 4.95 3.09l-2.69 4.18q-2.02-1.83-4.16-2.68-2.04-0.86-4.45-0.86-1.37 0-2.66 0.34-1.29 0.32-2.12 1.15-0.82 0.8-0.82 2.27 0 1.25 0.65 2.03 0.74 0.69 2.06 1.21 1.43 0.51 3.43 1.14 3.5 1.01 5.98 2.07 2.49 0.98 3.79 2.58 1.37 1.55 1.37 4.29 0 4.36-3.27 6.84-3.22 2.41-8.61 2.41zm22.28-0.57h-5.23v-7.32h5.23zm23.9-30.24v5.72q-3.65 0.04-6.52 1.69-2.79 1.57-4.01 4.48v18.35h-6.31v-29.99h5.84v6.68q1.56-3.09 4.08-4.91 2.53-1.9 5.31-2.08 0.59 0 0.95 0.01 0.38-0.01 0.66 0.05zm3.1 30.24h-5.23v-7.31h5.23zm8.1-6.39v-35.49h6.31v33.22q0 2.29 0.65 2.98 0.74 0.59 1.8 0.59 1.09 0 2.1-0.19 1.05-0.31 1.78-0.62l0.93 4.97q-1.41 0.6-3.29 0.98-1.87 0.39-3.38 0.39-3.23 0-5.11-1.76-1.79-1.83-1.79-5.07zm21.9 6.39h-5.23v-7.32h5.23z"/>
			<path id="FALEGNAMERIA
" fill-rule="evenodd" class="s0" d="m356.02 155h-4.26v-18.41h12.49v3.72h-8.23v3.97h6.79v3.46h-6.79zm36.02 0l6.37-18.4h4.57l6.35 18.4h-4.36l-1.42-4.13h-5.74l-1.4 4.13zm6.45-7.04h4.34l-2.13-7.07zm53.45 7.04h-13.17v-18.41h4.26v14.69h8.91zm34.09-3.72h8.68v3.72h-12.94v-18.41h12.7v3.72h-8.44v3.58h7.26v3.47h-7.26zm46.53 3.85q-1.79 0-3.41-0.68-1.59-0.68-2.82-1.94-1.22-1.27-1.92-2.98-0.68-1.74-0.68-3.86 0-1.92 0.68-3.58 0.72-1.67 1.94-2.93 1.27-1.27 2.93-1.97 1.68-0.73 3.63-0.73 2.54 0 4.46 1.09 1.96 1.09 2.91 2.93l-3.17 2.4q-0.63-1.24-1.81-1.93-1.18-0.7-2.53-0.7-1.05 0-1.93 0.44-0.86 0.42-1.51 1.19-0.61 0.75-0.96 1.76-0.33 1.01-0.33 2.17 0 1.21 0.36 2.21 0.36 1.01 1.01 1.77 0.66 0.73 1.53 1.16 0.91 0.4 1.99 0.4 1.32 0 2.52-0.65 1.22-0.69 2.23-1.96v4.18q-2.2 2.21-5.12 2.21zm4.85-0.13v-6.54h-3.56v-3.08h7.09v9.62zm47.04 0l-8.43-10.54v10.54h-4.25v-18.41h3.36l8.52 10.84v-10.83h4.26v18.4zm32.59 0l6.38-18.41h4.57l6.34 18.41h-4.35l-1.43-4.13h-5.73l-1.4 4.13zm6.44-7.04h4.34l-2.12-7.08zm60.04 7.04h-4.25v-10.97l-3.97 7.99h-2.32l-3.97-7.99v10.97h-4.25v-18.4h4.62l4.76 9.62 4.79-9.62h4.59zm35.49-3.73h8.68v3.73h-12.93v-18.41h12.7v3.72h-8.45v3.58h7.26v3.47h-7.26zm43 3.72h-4.25v-18.41h8.28q1.31 0 2.4 0.55 1.12 0.52 1.92 1.42 0.81 0.89 1.24 2.02 0.45 1.1 0.45 2.24 0 1.13-0.37 2.17-0.35 1.02-1.04 1.84-0.66 0.81-1.59 1.32l4.06 6.85h-4.7l-3.52-5.94h-2.88zm0-14.68v5.03h3.89q0.5 0 0.9-0.3 0.43-0.34 0.68-0.91 0.26-0.57 0.26-1.31 0-0.76-0.31-1.31-0.28-0.57-0.73-0.88-0.45-0.32-0.93-0.32zm45 14.68h-4.26v-18.4h4.26zm30.02 0l6.37-18.41h4.57l6.35 18.41h-4.36l-1.43-4.13h-5.73l-1.4 4.13zm6.44-7.05h4.35l-2.13-7.07z"/>
			<path id="&lt;Path&gt;" class="s1" d="m602.61 178.36v110.49"/>
			<path id="Forma 5 00000069361234730332121180000007771927667558664591 " fill-rule="evenodd" class="s2" d="m156.98 109.84h123.63c15.52 0 28.1 12.58 28.1 28.1v123.63c0 15.52-12.58 28.1-28.1 28.1h-123.63c-15.52 0-28.1-12.58-28.1-28.1v-123.63c0-15.52 12.58-28.1 28.1-28.1zm116.56 118.26c-11.31-0.25-22.28-2.08-32.46-7.3-4.37-2.24-8.7-4.58-12.85-7.18-6.42-4.02-12.74-4.15-19.26-0.38-3.21 1.86-6.5 3.57-9.75 5.33-8.34 4.52-17.14 7.67-26.58 8.81-4.24 0.51-8.53 0.67-12.9 0.99 0 3.42 0 6.75 0 10.18 39.26 0 78.4 0 117.62 0 0-3.49 0-6.75 0-10.45-1.44 0-2.63 0.02-3.82 0zm-113.53-1.95c3.52-0.2 7.01-0.35 10.49-0.6 3.71-0.26 3.67-0.31 4.15-3.94 1.59-12.07 4.96-23.54 11.4-33.98 0.85-1.37 1.76-2.69 2.67-4.09-3.71-2.98-7.25-5.82-10.92-8.77-10.89 13.18-17.19 35.47-17.79 51.38zm113.75-2.87c-0.06-2.74 0.21-5.08 2.17-7.54 4.12-5.18 1.26-11.5-5.31-12.46-1.94-0.28-3.97-0.3-5.91-0.03-6.72 0.91-9.6 7.25-5.42 12.56 1.86 2.35 2.3 4.59 2.18 7.27-0.03 0.59 0.09 1.18 0.17 2.08 3.96 0.33 7.87 0.65 12 0.99 0.06-1.19 0.14-2.03 0.12-2.87zm-105.3-62.32c-0.66 0.82-1.17 1.46-1.72 2.15 0.52 0.47 0.88 0.83 1.28 1.15 15.02 12.08 30.12 24.05 45.03 36.27 7.06 5.79 14.43 11.01 22.9 14.67-22.45-18.04-44.9-36.08-67.49-54.24z"/>
		</g>
	</g>
</svg>