<svg version="1.2" xmlns="http://www.w3.org/2000/svg" viewBox="0 0 1020 180" width="1020" height="180"><style>.a{stroke:#348059;stroke-miterlimit:10;stroke-width:7}</style><path fill-rule="evenodd" d="m224 126.6q0-6 2.3-11.8 2.3-5.8 6.6-10.5 4.4-4.8 10.6-7.5 6.3-2.9 14.2-2.9 9.4 0 16.4 4 7.1 3.9 10.5 10.3l-13.8 9.9q-1.2-3.3-3.5-5-2.2-1.8-4.9-2.4-2.6-0.8-5.1-0.8-3.9 0-6.8 1.6-2.8 1.5-4.6 4-1.8 2.5-2.7 5.5-0.8 3.1-0.8 6.1 0 3.5 1 6.6 1 3.2 3 5.7 1.9 2.4 4.7 3.8 2.8 1.3 6.4 1.3 2.5 0 5.1-0.7 2.6-0.8 4.7-2.6 2.1-1.8 3.2-4.7l14.7 8.8q-1.9 4.8-6.4 8.2-4.6 3.4-10.3 5.3-5.8 1.8-11.4 1.8-7.3 0-13.4-2.9-6-3-10.5-7.8-4.3-4.9-6.8-10.9-2.4-6.1-2.4-12.4zm100.3 34q-7.5 0-13.6-2.8-6.1-2.9-10.6-7.6-4.3-4.8-6.7-10.7-2.4-6.1-2.4-12.5 0-6.5 2.5-12.5 2.5-5.9 7-10.5 4.5-4.7 10.6-7.4 6.2-2.7 13.5-2.7 7.5 0 13.7 2.9 6.1 2.7 10.4 7.6 4.4 4.8 6.7 10.8 2.4 5.9 2.4 12.2 0 6.5-2.5 12.4-2.4 5.9-7 10.7-4.4 4.6-10.5 7.4-6.1 2.7-13.5 2.7zm-14.9-33.4q0 3.4 0.9 6.5 0.9 3.1 2.8 5.6 1.8 2.4 4.6 3.8 2.9 1.4 6.8 1.4 3.8 0 6.7-1.4 2.9-1.5 4.6-4 1.9-2.6 2.7-5.7 1-3.1 1-6.4 0-3.3-1-6.3-0.9-3.1-2.7-5.5-1.9-2.5-4.8-3.9-2.8-1.4-6.6-1.4-3.9 0-6.8 1.5-2.8 1.5-4.6 4-1.9 2.4-2.8 5.5-0.8 3.1-0.8 6.3zm129 32.8h-18v-34.6l-11 24.3h-9.7l-11-24.3v34.6h-18v-65.7h19.7l14.1 30.9 14.3-30.9h19.6z"/><path fill-rule="evenodd" d="m511.7 158l25.7-65.7h9.8l25.6 65.7h-10.9l-7-17.9h-25.4l-6.9 17.9zm19.7-25.6h21.5l-10.6-28.8zm64.5 25.6h-10.5v-65.8h28.6q4.5 0 8.1 1.9 3.8 1.8 6.5 4.9 2.8 3.1 4.3 6.9 1.5 3.8 1.5 7.7 0 4.4-1.6 8.5-1.5 3.8-4.5 6.7-2.8 2.9-6.7 4.2l15.4 25h-11.6l-14.3-22.9h-15.2zm0-56.5v24.4h18q3 0 5.2-1.6 2.2-1.7 3.4-4.4 1.4-2.9 1.4-6.2 0-3.4-1.6-6.1-1.4-2.9-3.8-4.4-2.3-1.7-5.1-1.7zm66 56.5h-10.4v-65.7h28.6q4.4 0 8.1 1.8 3.7 1.8 6.4 4.9 2.8 3.1 4.3 7 1.6 3.7 1.6 7.7 0 4.3-1.7 8.4-1.5 3.9-4.4 6.7-2.9 2.9-6.8 4.2l15.5 25h-11.7l-14.3-22.9h-15.2zm0-56.5v24.5h18.1q2.9 0 5.1-1.7 2.2-1.7 3.4-4.4 1.4-2.9 1.4-6.2 0-3.4-1.6-6.1-1.4-2.8-3.7-4.4-2.4-1.7-5.2-1.7zm66 47.3h34.7v9.2h-45.1v-65.7h44.3v9.2h-33.9v18.7h29.4v8.6h-29.4zm72.9 9.2h-23.3v-65.7h23.3q10.7 0 17.7 4.4 7.3 4.4 10.8 11.9 3.6 7.4 3.6 16.4 0 10-4 17.5-3.9 7.4-11.1 11.4-7.2 4.1-17 4.1zm21.5-33q0-6.9-2.5-12.2-2.5-5.3-7.4-8.3-4.7-3-11.6-3h-12.9v47.3h12.9q7 0 11.7-3.1 4.9-3.2 7.3-8.5 2.5-5.4 2.5-12.2zm53.5 33.5q-7 0-12.8-2.7-5.7-2.9-9.9-7.6-4.2-4.8-6.5-10.7-2.2-6.1-2.2-12.4 0-6.6 2.4-12.5 2.4-6 6.6-10.6 4.3-4.7 10-7.4 5.8-2.8 12.6-2.8 7.1 0 12.8 3 5.8 2.8 9.9 7.6 4.2 4.8 6.4 10.8 2.3 5.9 2.3 12.1 0 6.5-2.4 12.5-2.3 6-6.7 10.7-4.2 4.6-10 7.4-5.7 2.6-12.5 2.6zm-20.8-33.3q0 4.6 1.4 9 1.5 4.3 4.2 7.7 2.7 3.3 6.5 5.3 4 2 8.8 2 5 0 8.8-2 4-2.2 6.6-5.6 2.7-3.5 4.1-7.8 1.4-4.3 1.4-8.7 0-4.6-1.5-8.8-1.4-4.4-4.3-7.7-2.6-3.5-6.5-5.4-3.8-2-8.6-2-5 0-8.9 2.1-3.8 2-6.5 5.5-2.7 3.4-4.2 7.6-1.3 4.3-1.3 8.8z"/><path fill-rule="evenodd" d="m940.5 151.6q-3.8 0-7.2-1.2-3.4-1.3-5.8-3.8l2.3-4.2q2.6 2.3 5.2 3.3 2.6 1 5.2 1 2.7 0 4.3-0.9 1.7-1 1.7-3 0-1.4-0.9-2.1-0.8-0.7-2.5-1.2-1.6-0.5-3.9-1.2-3.2-1-5.4-2-2.2-1-3.3-2.6-1.1-1.6-1.1-4 0-2.9 1.5-4.9 1.5-2.1 4.2-3.2 2.7-1.1 6.2-1.1 3.2 0 6 1 2.8 1 5 3.1l-2.7 4.2q-2.1-1.8-4.2-2.7-2-0.9-4.5-0.9-1.3 0-2.6 0.4-1.3 0.3-2.1 1.1-0.9 0.8-0.9 2.3 0 1.3 0.7 2 0.7 0.7 2.1 1.2 1.4 0.6 3.4 1.2 3.5 1 6 2 2.5 1 3.8 2.6 1.3 1.6 1.3 4.3 0 4.4-3.2 6.9-3.3 2.4-8.6 2.4zm22.2-0.6h-5.2v-7.3h5.2zm23.9-30.3v5.8q-3.6 0-6.5 1.7-2.8 1.5-4 4.4v18.4h-6.3v-30h5.8v6.7q1.6-3.1 4.1-4.9 2.5-1.9 5.3-2.1 0.6 0 1 0 0.3 0 0.6 0zm3.1 30.3h-5.2v-7.3h5.2zm8.1-6.4v-35.5h6.3v33.2q0 2.3 0.7 3 0.7 0.6 1.8 0.6 1.1 0 2.1-0.2 1-0.3 1.8-0.6l0.9 4.9q-1.4 0.6-3.3 1-1.9 0.4-3.4 0.4-3.2 0-5.1-1.7-1.8-1.9-1.8-5.1zm21.9 6.4h-5.2v-7.3h5.2z"/><path fill-rule="evenodd" d="m228 47h-4.2v-18.4h12.4v3.7h-8.2v4h6.8v3.4h-6.8zm36 0l6.4-18.4h4.6l6.3 18.4h-4.3l-1.5-4.1h-5.7l-1.4 4.1zm6.5-7h4.3l-2.1-7.1zm53.4 7.1h-13.2v-18.4h4.3v14.7h8.9zm34.1-3.8h8.7v3.8h-13v-18.5h12.7v3.8h-8.4v3.5h7.3v3.5h-7.3zm46.5 3.9q-1.8 0-3.4-0.7-1.6-0.7-2.8-2-1.2-1.2-1.9-2.9-0.7-1.8-0.7-3.9 0-1.9 0.7-3.6 0.7-1.6 1.9-2.9 1.3-1.3 3-2 1.6-0.7 3.6-0.7 2.5 0 4.4 1.1 2 1.1 3 2.9l-3.2 2.4q-0.6-1.2-1.8-1.9-1.2-0.7-2.5-0.7-1.1 0-2 0.4-0.8 0.4-1.5 1.2-0.6 0.8-0.9 1.8-0.4 1-0.4 2.1 0 1.3 0.4 2.3 0.3 1 1 1.7 0.6 0.8 1.5 1.2 0.9 0.4 2 0.4 1.3 0 2.5-0.7 1.1-0.6 2-1.6v4.1q-2.1 2-4.9 2zm4.9-6.1v-0.6h-3.6v-3.1h7.1v9.6h-3.5v-1.8q0.1-0.1 0.3-0.2v-4.2q-0.2 0.1-0.3 0.3zm47 5.9l-8.4-10.5v10.5h-4.3v-18.4h3.4l8.5 10.9v-10.9h4.3v18.4zm32.6 0l6.4-18.4h4.5l6.4 18.4h-4.4l-1.4-4.1h-5.7l-1.4 4.1zm6.4-7h4.3l-2.1-7.1zm60.1 7.1h-4.3v-11l-4 8h-2.3l-3.9-8v11h-4.3v-18.4h4.6l4.8 9.6 4.8-9.6h4.6zm35.5-3.8h8.6v3.8h-12.9v-18.5h12.7v3.8h-8.4v3.5h7.2v3.5h-7.2zm43 3.7h-4.3v-18.4h8.3q1.3 0 2.4 0.6 1.1 0.5 1.9 1.4 0.8 0.9 1.2 2 0.5 1.1 0.5 2.3 0 1.1-0.4 2.1-0.3 1-1 1.9-0.7 0.8-1.6 1.3l4 6.8h-4.7l-3.5-5.9h-2.9zm0-14.7v5h3.9q0.5 0 0.9-0.3 0.5-0.3 0.7-0.9 0.3-0.5 0.3-1.3 0-0.7-0.3-1.3-0.3-0.6-0.8-0.9-0.4-0.3-0.9-0.3zm45 14.7h-4.3v-18.4h4.3zm30 0l6.4-18.4h4.6l6.3 18.4h-4.3l-1.5-4.1h-5.7l-1.4 4.1zm6.4-7.1h4.4l-2.1-7z"/><path class="a" d="m474.6 70.4v110.5"/><path fill-rule="evenodd" d="m29 1.8h123.6c15.5 0 28.1 12.6 28.1 28.1v123.7c0 15.5-12.6 28.1-28.1 28.1h-123.6c-15.5 0-28.1-12.6-28.1-28.1v-123.7c0-15.5 12.6-28.1 28.1-28.1zm116.5 118.3c-11.3-0.2-22.2-2.1-32.4-7.3-4.4-2.2-8.7-4.6-12.9-7.2-6.4-4-12.7-4.1-19.2-0.4-3.2 1.9-6.5 3.6-9.8 5.4-8.3 4.5-17.1 7.6-26.6 8.8-4.2 0.5-8.5 0.7-12.9 1 0 3.4 0 6.7 0 10.2 39.3 0 78.4 0 117.7 0 0-3.5 0-6.8 0-10.5-1.5 0-2.7 0-3.9 0zm-113.5-1.9c3.5-0.2 7-0.4 10.5-0.6 3.7-0.3 3.7-0.4 4.1-4 1.6-12.1 5-23.5 11.4-34 0.9-1.3 1.8-2.7 2.7-4.1-3.7-2.9-7.2-5.8-10.9-8.7-10.9 13.2-17.2 35.4-17.8 51.4zm113.8-2.9c-0.1-2.8 0.2-5.1 2.1-7.6 4.2-5.1 1.3-11.5-5.3-12.4-1.9-0.3-4-0.3-5.9 0-6.7 0.9-9.6 7.2-5.4 12.5 1.8 2.4 2.3 4.6 2.2 7.3-0.1 0.6 0.1 1.2 0.1 2.1 4 0.3 7.9 0.6 12 1 0.1-1.2 0.2-2.1 0.2-2.9zm-105.3-62.3c-0.7 0.8-1.2 1.4-1.8 2.1 0.6 0.5 0.9 0.8 1.3 1.2 15 12 30.1 24 45 36.2 7.1 5.8 14.5 11 22.9 14.7-22.4-18-44.9-36.1-67.4-54.2z"/></svg>