<svg version="1.2" xmlns="http://www.w3.org/2000/svg" viewBox="0 0 400 400" width="400" height="400">
	<style>
		.s0 { fill: #000000 } 
	</style>
	<g id="Layer 1">
	</g>
	<path id="Forma 5 00000069361234730332121180000007771927667558664591  copy 3" fill-rule="evenodd" class="s0" d="m137.98 109.84h123.63c15.52 0 28.1 12.58 28.1 28.1v123.63c0 15.52-12.58 28.1-28.1 28.1h-123.63c-15.52 0-28.1-12.58-28.1-28.1v-123.63c0-15.52 12.58-28.1 28.1-28.1zm116.56 118.26c-11.31-0.25-22.28-2.08-32.46-7.3-4.37-2.24-8.69-4.58-12.85-7.18-6.42-4.02-12.74-4.15-19.26-0.38-3.21 1.86-6.5 3.57-9.75 5.33-8.34 4.52-17.14 7.67-26.58 8.81-4.24 0.51-8.53 0.67-12.9 0.99 0 3.42 0 6.75 0 10.18 39.26 0 78.4 0 117.62 0 0-3.49 0-6.75 0-10.45-1.44 0-2.63 0.02-3.82 0zm-113.53-1.95c3.52-0.2 7.01-0.35 10.49-0.6 3.71-0.26 3.67-0.31 4.15-3.94 1.59-12.07 4.95-23.54 11.4-33.98 0.85-1.37 1.76-2.69 2.67-4.09-3.71-2.98-7.25-5.82-10.92-8.77-10.89 13.18-17.19 35.47-17.79 51.38zm113.75-2.87c-0.06-2.74 0.21-5.08 2.17-7.54 4.12-5.18 1.26-11.5-5.31-12.46-1.94-0.28-3.97-0.3-5.91-0.03-6.72 0.91-9.6 7.25-5.42 12.56 1.86 2.35 2.3 4.59 2.18 7.27-0.03 0.59 0.09 1.18 0.17 2.08 3.96 0.33 7.87 0.65 12 0.99 0.06-1.19 0.14-2.03 0.12-2.87zm-105.3-62.32c-0.66 0.82-1.17 1.46-1.72 2.15 0.52 0.47 0.88 0.83 1.28 1.15 15.02 12.08 30.12 24.05 45.03 36.27 7.06 5.79 14.43 11.01 22.9 14.67-22.45-18.04-44.9-36.08-67.49-54.24z"/>
</svg>