<svg version="1.2" xmlns="http://www.w3.org/2000/svg" viewBox="0 0 180 182" width="180" height="182"><style>.a{fill:#fff}</style><path fill-rule="evenodd" class="a" d="m28 1.8h123.6c15.5 0 28.1 12.6 28.1 28.1v123.7c0 15.5-12.6 28.1-28.1 28.1h-123.6c-15.5 0-28.1-12.6-28.1-28.1v-123.7c0-15.5 12.6-28.1 28.1-28.1zm116.5 118.3c-11.3-0.2-22.2-2.1-32.4-7.3-4.4-2.2-8.7-4.6-12.9-7.2-6.4-4-12.7-4.1-19.2-0.4-3.2 1.9-6.5 3.6-9.8 5.4-8.3 4.5-17.1 7.6-26.6 8.8-4.2 0.5-8.5 0.7-12.9 1 0 3.4 0 6.7 0 10.2 39.3 0 78.4 0 117.7 0 0-3.5 0-6.8 0-10.5-1.5 0-2.7 0-3.9 0zm-113.5-1.9c3.5-0.2 7-0.4 10.5-0.6 3.7-0.3 3.7-0.4 4.2-4 1.5-12.1 4.9-23.5 11.4-34 0.8-1.3 1.7-2.7 2.6-4.1-3.7-2.9-7.2-5.8-10.9-8.7-10.9 13.2-17.2 35.4-17.8 51.4zm113.8-2.9c-0.1-2.8 0.2-5.1 2.1-7.6 4.2-5.1 1.3-11.5-5.3-12.4-1.9-0.3-3.9-0.3-5.9 0-6.7 0.9-9.6 7.2-5.4 12.5 1.9 2.4 2.3 4.6 2.2 7.3-0.1 0.6 0.1 1.2 0.1 2.1 4 0.3 7.9 0.6 12 1 0.1-1.2 0.2-2.1 0.2-2.9zm-105.3-62.3c-0.7 0.8-1.2 1.4-1.8 2.1 0.6 0.5 0.9 0.8 1.3 1.2 15 12 30.1 24 45 36.2 7.1 5.8 14.5 11 22.9 14.7-22.4-18-44.9-36.1-67.4-54.2z"/></svg>